<svg width="27" height="43" viewBox="0 0 27 43" fill="none" xmlns="http://www.w3.org/2000/svg">
<rect x="1" y="1.40625" width="24.0406" height="40" rx="3" stroke="#00093C" stroke-width="2"/>
<path d="M12.0342 37.4102H14.0342" stroke="#00093C" stroke-width="2" stroke-linecap="round"/>
<path d="M15.041 29.4709L21.0292 29.4707" stroke="#00093C" stroke-width="2" stroke-linecap="round"/>
<path d="M18.035 26.4766L18.0352 32.4648" stroke="#00093C" stroke-width="2" stroke-linecap="round"/>
<mask id="path-5-inside-1_683_1862" fill="white">
<rect x="4.04688" y="5.38672" width="7.90212" height="7.90212" rx="1"/>
</mask>
<rect x="4.04688" y="5.38672" width="7.90212" height="7.90212" rx="1" stroke="#00093C" stroke-width="4" mask="url(#path-5-inside-1_683_1862)"/>
<mask id="path-6-inside-2_683_1862" fill="white">
<rect x="14.0342" y="5.38672" width="8.00441" height="8.00441" rx="1"/>
</mask>
<rect x="14.0342" y="5.38672" width="8.00441" height="8.00441" rx="1" stroke="#00093C" stroke-width="4" mask="url(#path-6-inside-2_683_1862)"/>
<mask id="path-7-inside-3_683_1862" fill="white">
<rect x="4.04688" y="15.4531" width="7.90212" height="7.90212" rx="1"/>
</mask>
<rect x="4.04688" y="15.4531" width="7.90212" height="7.90212" rx="1" stroke="#00093C" stroke-width="4" mask="url(#path-7-inside-3_683_1862)"/>
<mask id="path-8-inside-4_683_1862" fill="white">
<rect x="14.0342" y="15.4531" width="8.00441" height="8.00441" rx="1"/>
</mask>
<rect x="14.0342" y="15.4531" width="8.00441" height="8.00441" rx="1" stroke="#00093C" stroke-width="4" mask="url(#path-8-inside-4_683_1862)"/>
<mask id="path-9-inside-5_683_1862" fill="white">
<rect x="4.04688" y="25.5195" width="7.90212" height="7.90212" rx="1"/>
</mask>
<rect x="4.04688" y="25.5195" width="7.90212" height="7.90212" rx="1" stroke="#00093C" stroke-width="4" mask="url(#path-9-inside-5_683_1862)"/>
</svg>
