<svg width="100" height="53" viewBox="0 0 100 53" fill="none" xmlns="http://www.w3.org/2000/svg">
<path d="M16.4671 52.6366C7.38525 52.6366 0 47.2075 0 40.5312C0 33.8549 7.38525 28.4258 16.4671 28.4258C25.549 28.4258 32.9342 33.8549 32.9342 40.5312C32.9342 47.2442 25.549 52.6366 16.4671 52.6366Z" fill="white"/>
<path d="M16.4671 52.6365C7.38525 52.6365 0 47.2075 0 40.5312C0 33.8549 7.38525 28.4258 16.4671 28.4258C25.549 28.4258 32.9342 33.8549 32.9342 40.5312C32.9342 47.2441 25.549 52.6365 16.4671 52.6365Z" fill="white"/>
<path d="M55.3893 2.05136L37.525 23.5109C37.026 24.1345 37.5749 24.9048 38.523 24.9048H56.3873H74.2516C75.1997 24.9048 75.7486 24.0978 75.2496 23.5109L57.3853 2.05136C56.8863 1.50111 55.8384 1.50111 55.3893 2.05136Z" fill="white"/>
<path d="M32.5849 5.68284L26.1478 0.950735C25.6987 0.620588 24.9003 0.620588 24.4512 0.950735L17.3653 6.15972C16.9162 6.48986 16.1178 6.48986 15.6687 6.15972L8.58288 0.950735C8.13378 0.620588 7.33538 0.620588 6.88627 0.950735L0.449132 5.68284C2.89232e-05 6.01298 2.89232e-05 6.59992 0.449132 6.93006L7.53497 12.139C7.98407 12.4692 7.98407 13.0561 7.53497 13.3863L0.449132 18.5953C2.89232e-05 18.9254 2.89232e-05 19.5123 0.449132 19.8425L6.88627 24.5746C7.33538 24.9047 8.13378 24.9047 8.58288 24.5746L15.6687 19.3656C16.1178 19.0354 16.9162 19.0354 17.3653 19.3656L24.4512 24.5746C24.9003 24.9047 25.6987 24.9047 26.1478 24.5746L32.5849 19.8425C33.034 19.5123 33.034 18.9254 32.5849 18.5953L25.4991 13.3863C25.05 13.0561 25.05 12.4692 25.4991 12.139L32.5849 6.93006C33.084 6.59992 33.084 6.04967 32.5849 5.68284Z" fill="white"/>
<path d="M40.6685 36.7904V38.3311H44.3112V39.3949H40.6685V41.4858H38.8721V35.7266H44.7603V36.7904H40.6685Z" fill="white"/>
<path d="M47.2059 40.8989C46.6071 40.4587 46.2578 39.7984 46.2578 38.9547V35.7266H48.0542V38.8813C48.0542 39.9084 48.653 40.422 49.8007 40.422C50.3496 40.422 50.7987 40.3119 51.0981 40.0552C51.3975 39.7984 51.5472 39.4315 51.5472 38.8813V35.7266H53.3437V38.9547C53.3437 39.7984 53.0443 40.4587 52.3956 40.8989C51.7968 41.3391 50.8985 41.5958 49.8007 41.5958C48.7029 41.5958 47.8047 41.3391 47.2059 40.8989Z" fill="white"/>
<path d="M56.9364 36.8271H54.4414V35.7266H61.2278V36.8271H58.7328V41.4858H56.9364V36.8271Z" fill="white"/>
<path d="M63.2733 40.8989C62.6745 40.4587 62.3252 39.7984 62.3252 38.9547V35.7266H64.1216V38.8813C64.1216 39.9084 64.7204 40.422 65.8681 40.422C66.417 40.422 66.8661 40.3119 67.1655 40.0552C67.4649 39.7984 67.6146 39.4315 67.6146 38.8813V35.7266H69.411V38.9547C69.411 39.7984 69.1116 40.4587 68.4629 40.8989C67.8641 41.3391 66.9659 41.5958 65.8681 41.5958C64.7703 41.5958 63.922 41.3391 63.2733 40.8989Z" fill="white"/>
<path d="M76.4969 41.4862L74.9999 39.8722H74.9H73.3032V41.4862H71.5068V35.7637H74.9C75.5986 35.7637 76.1975 35.837 76.6965 36.0205C77.1955 36.2039 77.5947 36.424 77.8941 36.7541C78.1436 37.0476 78.2933 37.4511 78.2933 37.8546C78.2933 38.2948 78.1436 38.6616 77.8941 38.9551C77.5947 39.2486 77.1955 39.5053 76.6965 39.6521L78.443 41.4862H76.4969ZM76.0478 37.0843C75.7484 36.9008 75.3492 36.8275 74.8003 36.8275H73.3032V38.845H74.8003C75.3492 38.845 75.7484 38.7717 76.0478 38.5883C76.3472 38.4049 76.447 38.1848 76.447 37.8546C76.4969 37.4878 76.3472 37.2677 76.0478 37.0843Z" fill="white"/>
<path d="M86.1277 40.422V41.4858H80.0898V35.7266H85.9781V36.7904H81.8862V38.0376H85.4791V39.1014H81.8862V40.422H86.1277Z" fill="white"/>
<path d="M44.0119 50.8757H40.3691L39.6705 52.1229H37.8242L41.3172 46.4004H43.1137L46.6067 52.1229H44.7105L44.0119 50.8757ZM43.463 49.8853L42.2154 47.6843L40.9679 49.8853H43.463Z" fill="white"/>
<path d="M49.2021 51.8297C48.5534 51.5729 48.0544 51.2061 47.7051 50.7659C47.3558 50.3257 47.1562 49.8122 47.1562 49.2252C47.1562 48.675 47.3558 48.1614 47.7051 47.6845C48.0544 47.2443 48.6033 46.8775 49.2021 46.6207C49.8508 46.364 50.5495 46.2539 51.3479 46.2539C52.0465 46.2539 52.6453 46.3273 53.1942 46.5107C53.7431 46.6941 54.1922 46.9509 54.5914 47.281L53.4437 48.0514C52.8948 47.6112 52.2461 47.3911 51.4976 47.3911C50.9986 47.3911 50.5993 47.4645 50.2001 47.6112C49.8009 47.7579 49.5016 47.978 49.302 48.2715C49.1023 48.5649 49.0025 48.8584 49.0025 49.2252C49.0025 49.5921 49.1023 49.8855 49.302 50.179C49.5016 50.4725 49.8009 50.6926 50.2001 50.8393C50.5993 50.986 50.9986 51.0594 51.4976 51.0594C52.296 51.0594 52.9447 50.8393 53.4437 50.3624L54.5914 51.1327C54.2421 51.4629 53.7431 51.7197 53.1942 51.9031C52.6453 52.0865 52.0465 52.1599 51.3479 52.1599C50.5994 52.1966 49.8508 52.0865 49.2021 51.8297Z" fill="white"/>
<path d="M61.1281 50.8757H57.4853L56.7867 52.1229H54.9404L58.4334 46.4004H60.2299L63.7229 52.1229H61.8267L61.1281 50.8757ZM60.5792 49.8853L59.3317 47.6843L58.0842 49.8853H60.5792Z" fill="white"/>
<path d="M64.8701 46.3633H68.413C69.2613 46.3633 70.0098 46.4733 70.6585 46.7301C71.3073 46.9502 71.8063 47.317 72.1556 47.7206C72.5049 48.1608 72.7045 48.6376 72.7045 49.2246C72.7045 49.8115 72.5049 50.2884 72.1556 50.7286C71.8063 51.1688 71.3073 51.4989 70.6585 51.719C70.0098 51.9391 69.2613 52.0858 68.413 52.0858H64.8701V46.3633ZM68.3132 51.022C69.1116 51.022 69.7104 50.8753 70.1595 50.5452C70.6086 50.215 70.8582 49.7748 70.8582 49.2612C70.8582 48.711 70.6086 48.2708 70.1595 47.9773C69.7104 47.6472 69.0617 47.5005 68.3132 47.5005H66.6665V51.0587H68.3132V51.022Z" fill="white"/>
<path d="M80.4393 51.0587V52.1225H74.4014V46.3633H80.2896V47.4271H76.1978V48.6743H79.8405V49.7014H76.1978V51.0587H80.4393Z" fill="white"/>
<path d="M89.3212 52.1225V48.6743L87.0258 51.4989H86.2274L83.932 48.7477V52.1225H82.2354V46.3633H83.7324L86.6266 49.9215L89.5208 46.3633H91.0178V52.1225H89.3212Z" fill="white"/>
<path d="M96.9565 50.0683V52.1225H95.1601V50.0683L92.1162 46.3633H94.0623L96.1582 48.9311L98.2041 46.3633H100L96.9565 50.0683Z" fill="white"/>
</svg>
